<?xml version="1.0" encoding="UTF-8" standalone="no"?>
<svg
   xmlns:dc="http://purl.org/dc/elements/1.1/"
   xmlns:cc="http://creativecommons.org/ns#"
   xmlns:rdf="http://www.w3.org/1999/02/22-rdf-syntax-ns#"
   xmlns:svg="http://www.w3.org/2000/svg"
   xmlns="http://www.w3.org/2000/svg"
   xmlns:sodipodi="http://sodipodi.sourceforge.net/DTD/sodipodi-0.dtd"
   xmlns:inkscape="http://www.inkscape.org/namespaces/inkscape"
   viewBox="0 0 100 100"
   version="1.1"
   id="svg3925"
   sodipodi:docname="basically-basic-logo-light.svg"
   inkscape:version="0.92.4 (f8dce91, 2019-08-02)">
  <metadata
     id="metadata3931">
    <rdf:RDF>
      <cc:Work
         rdf:about="">
        <dc:format>image/svg+xml</dc:format>
        <dc:type
           rdf:resource="http://purl.org/dc/dcmitype/StillImage" />
      </cc:Work>
    </rdf:RDF>
  </metadata>
  <defs
     id="defs3929" />
  <sodipodi:namedview
     pagecolor="#ffffff"
     bordercolor="#666666"
     borderopacity="1"
     objecttolerance="10"
     gridtolerance="10"
     guidetolerance="10"
     inkscape:pageopacity="0"
     inkscape:pageshadow="2"
     inkscape:window-width="1850"
     inkscape:window-height="1016"
     id="namedview3927"
     showgrid="false"
     inkscape:zoom="8.38"
     inkscape:cx="50"
     inkscape:cy="45.22673"
     inkscape:window-x="70"
     inkscape:window-y="27"
     inkscape:window-maximized="1"
     inkscape:current-layer="svg3925" />
  <g
     id="g3923"
     style="fill:#333333">
    <path
       d="M64.8 52.7h-2.6l-1.1 7.9h2c5 0 6-2.1 6-4.9C69.2 53.6 67.7 52.7 64.8 52.7zM32.4 52.7h-2.5v7.9H32c3.3 0 5.5-.7 5.5-3.9C37.5 53.9 35.8 52.7 32.4 52.7zM36.2 42.3c0-2.1-1.2-3.1-4.7-3.1h-1.6v6.7h1.8C35 45.9 36.2 44.9 36.2 42.3z"
       id="path3917"
       style="fill:#333333" />
    <path
       d="M65.7,39.2h-1.6l-0.9,6.7H65c4.4,0,4.9-2.4,4.9-4.3C69.9,40,68.8,39.2,65.7,39.2z"
       id="path3921"
       style="fill:#333333" />
    <path
       d="M 0,0 V 100 H 100 V 0 Z M 31.9,68.1 H 19.2 V 31.9 h 11.3 c 10.2,0 16.6,2.3 16.6,9.4 0,4.7 -3.3,6.8 -6.6,7.7 4,0.8 8.1,2.8 8.1,8.5 0,8.5 -7.2,10.6 -16.7,10.6 z"
       id="path3919"
       style="fill:#333333"
       inkscape:connector-curvature="0"
       sodipodi:nodetypes="cccccsccsscss" />
  </g>
  <text
     xml:space="preserve"
     style="font-style:normal;font-weight:normal;font-size:40px;line-height:1.25;font-family:sans-serif;letter-spacing:0px;word-spacing:0px;fill:#ffffff;fill-opacity:1;stroke:none"
     x="48.090694"
     y="67.183769"
     id="text3935"><tspan
       sodipodi:role="line"
       id="tspan3933"
       x="48.090694"
       y="67.183769"
       style="-inkscape-font-specification:'Liberation Serif';font-family:'Liberation Serif';font-weight:normal;font-style:normal;font-stretch:normal;font-variant:normal">T</tspan></text>
</svg>
